<mxfile host="app.diagrams.net" modified="2020-12-30T04:21:33.258Z" agent="5.0 (Windows NT 10.0; Win64; x64) AppleWebKit/537.36 (KHTML, like Gecko) Chrome/87.0.4280.88 Safari/537.36" etag="wB4UAyEkXqWmKt3lGXhR" version="14.0.0" type="github">
  <diagram id="-LbYx8UmjF40f4Z82m4-" name="Page-1">
    <mxGraphModel dx="1038" dy="580" grid="1" gridSize="10" guides="1" tooltips="1" connect="1" arrows="1" fold="1" page="1" pageScale="1" pageWidth="827" pageHeight="1169" math="0" shadow="0">
      <root>
        <mxCell id="0" />
        <mxCell id="1" parent="0" />
        <mxCell id="N7k7WyFVu64MbGQVnXWt-1" value="手写中文签名的检索系统" style="rounded=0;whiteSpace=wrap;html=1;" vertex="1" parent="1">
          <mxGeometry x="120" y="240" width="120" height="40" as="geometry" />
        </mxCell>
        <mxCell id="N7k7WyFVu64MbGQVnXWt-2" value="" style="rounded=0;whiteSpace=wrap;html=1;" vertex="1" parent="1">
          <mxGeometry x="120" y="280" width="120" height="60" as="geometry" />
        </mxCell>
        <mxCell id="N7k7WyFVu64MbGQVnXWt-3" value="用户" style="rounded=0;whiteSpace=wrap;html=1;" vertex="1" parent="1">
          <mxGeometry x="350" y="240" width="120" height="40" as="geometry" />
        </mxCell>
        <mxCell id="N7k7WyFVu64MbGQVnXWt-4" value="" style="rounded=0;whiteSpace=wrap;html=1;" vertex="1" parent="1">
          <mxGeometry x="350" y="280" width="120" height="60" as="geometry" />
        </mxCell>
        <mxCell id="N7k7WyFVu64MbGQVnXWt-5" value="管理员" style="rounded=0;whiteSpace=wrap;html=1;" vertex="1" parent="1">
          <mxGeometry x="610" y="240" width="120" height="40" as="geometry" />
        </mxCell>
        <mxCell id="N7k7WyFVu64MbGQVnXWt-6" value="" style="rounded=0;whiteSpace=wrap;html=1;" vertex="1" parent="1">
          <mxGeometry x="610" y="280" width="120" height="60" as="geometry" />
        </mxCell>
        <mxCell id="N7k7WyFVu64MbGQVnXWt-7" value="&lt;span&gt;中文签名的检索算法&lt;/span&gt;" style="rounded=0;whiteSpace=wrap;html=1;" vertex="1" parent="1">
          <mxGeometry x="120" y="440" width="120" height="40" as="geometry" />
        </mxCell>
        <mxCell id="N7k7WyFVu64MbGQVnXWt-8" value="" style="rounded=0;whiteSpace=wrap;html=1;" vertex="1" parent="1">
          <mxGeometry x="120" y="480" width="120" height="60" as="geometry" />
        </mxCell>
        <mxCell id="N7k7WyFVu64MbGQVnXWt-13" value="用户信息管理" style="rounded=0;whiteSpace=wrap;html=1;" vertex="1" parent="1">
          <mxGeometry x="350" y="440" width="120" height="40" as="geometry" />
        </mxCell>
        <mxCell id="N7k7WyFVu64MbGQVnXWt-14" value="" style="rounded=0;whiteSpace=wrap;html=1;" vertex="1" parent="1">
          <mxGeometry x="350" y="480" width="120" height="60" as="geometry" />
        </mxCell>
        <mxCell id="N7k7WyFVu64MbGQVnXWt-15" value="后台管理" style="rounded=0;whiteSpace=wrap;html=1;" vertex="1" parent="1">
          <mxGeometry x="610" y="440" width="120" height="40" as="geometry" />
        </mxCell>
        <mxCell id="N7k7WyFVu64MbGQVnXWt-16" value="" style="rounded=0;whiteSpace=wrap;html=1;" vertex="1" parent="1">
          <mxGeometry x="610" y="480" width="120" height="60" as="geometry" />
        </mxCell>
        <mxCell id="N7k7WyFVu64MbGQVnXWt-17" value="return" style="html=1;verticalAlign=bottom;endArrow=open;dashed=1;endSize=8;entryX=1;entryY=0;entryDx=0;entryDy=0;" edge="1" parent="1" target="N7k7WyFVu64MbGQVnXWt-2">
          <mxGeometry x="0.6364" y="-190" relative="1" as="geometry">
            <mxPoint x="350" y="280" as="sourcePoint" />
            <mxPoint x="270" y="280" as="targetPoint" />
            <mxPoint as="offset" />
          </mxGeometry>
        </mxCell>
        <mxCell id="N7k7WyFVu64MbGQVnXWt-18" value="return" style="html=1;verticalAlign=bottom;endArrow=open;dashed=1;endSize=8;exitX=0;exitY=1;exitDx=0;exitDy=0;" edge="1" parent="1" source="N7k7WyFVu64MbGQVnXWt-5">
          <mxGeometry y="-200" relative="1" as="geometry">
            <mxPoint x="580" y="290" as="sourcePoint" />
            <mxPoint x="470" y="281" as="targetPoint" />
            <mxPoint as="offset" />
          </mxGeometry>
        </mxCell>
        <mxCell id="N7k7WyFVu64MbGQVnXWt-19" value="return" style="html=1;verticalAlign=bottom;endArrow=open;dashed=1;endSize=8;exitX=0.5;exitY=1;exitDx=0;exitDy=0;entryX=0.5;entryY=0;entryDx=0;entryDy=0;" edge="1" parent="1" source="N7k7WyFVu64MbGQVnXWt-4" target="N7k7WyFVu64MbGQVnXWt-13">
          <mxGeometry x="-1" y="253" relative="1" as="geometry">
            <mxPoint x="430" y="400" as="sourcePoint" />
            <mxPoint x="350" y="400" as="targetPoint" />
            <Array as="points" />
            <mxPoint x="-213" y="-250" as="offset" />
          </mxGeometry>
        </mxCell>
        <mxCell id="N7k7WyFVu64MbGQVnXWt-22" value="return" style="html=1;verticalAlign=bottom;endArrow=open;dashed=1;endSize=8;" edge="1" parent="1">
          <mxGeometry x="-1" y="-242" relative="1" as="geometry">
            <mxPoint x="669.5" y="340" as="sourcePoint" />
            <mxPoint x="669.5" y="437" as="targetPoint" />
            <mxPoint x="222" y="-241" as="offset" />
          </mxGeometry>
        </mxCell>
        <mxCell id="N7k7WyFVu64MbGQVnXWt-23" value="return" style="html=1;verticalAlign=bottom;endArrow=open;dashed=1;endSize=8;exitX=0.437;exitY=-0.005;exitDx=0;exitDy=0;exitPerimeter=0;entryX=0.443;entryY=1.037;entryDx=0;entryDy=0;entryPerimeter=0;" edge="1" parent="1" source="N7k7WyFVu64MbGQVnXWt-7" target="N7k7WyFVu64MbGQVnXWt-2">
          <mxGeometry x="1" y="-284" relative="1" as="geometry">
            <mxPoint x="160" y="410" as="sourcePoint" />
            <mxPoint x="170" y="350" as="targetPoint" />
            <mxPoint x="-107" y="-224" as="offset" />
          </mxGeometry>
        </mxCell>
        <mxCell id="N7k7WyFVu64MbGQVnXWt-24" value="return" style="html=1;verticalAlign=bottom;endArrow=open;dashed=1;endSize=8;exitX=0.5;exitY=1;exitDx=0;exitDy=0;entryX=0.5;entryY=1;entryDx=0;entryDy=0;" edge="1" parent="1" source="N7k7WyFVu64MbGQVnXWt-16" target="N7k7WyFVu64MbGQVnXWt-8">
          <mxGeometry x="-0.5499" y="-458" relative="1" as="geometry">
            <mxPoint x="300" y="650" as="sourcePoint" />
            <mxPoint x="220" y="650" as="targetPoint" />
            <Array as="points">
              <mxPoint x="670" y="600" />
              <mxPoint x="400" y="600" />
              <mxPoint x="180" y="600" />
            </Array>
            <mxPoint as="offset" />
          </mxGeometry>
        </mxCell>
        <mxCell id="N7k7WyFVu64MbGQVnXWt-25" value="return" style="html=1;verticalAlign=bottom;endArrow=open;dashed=1;endSize=8;entryX=0.417;entryY=1;entryDx=0;entryDy=0;entryPerimeter=0;" edge="1" parent="1" target="N7k7WyFVu64MbGQVnXWt-14">
          <mxGeometry x="1" y="-510" relative="1" as="geometry">
            <mxPoint x="660" y="600" as="sourcePoint" />
            <mxPoint x="390" y="580" as="targetPoint" />
            <Array as="points">
              <mxPoint x="400" y="600" />
            </Array>
            <mxPoint x="-410" y="-500" as="offset" />
          </mxGeometry>
        </mxCell>
      </root>
    </mxGraphModel>
  </diagram>
</mxfile>
